<svg xmlns="http://www.w3.org/2000/svg" version="1.1" xmlns:xlink="http://www.w3.org/1999/xlink" xmlns:svgjs="http://svgjs.dev/svgjs" viewBox="0 0 800 800"><g shape-rendering="crispEdges"><g><use xlink:href="#SvgjsSymbol1015" x="306.25" y="218.75" fill="hsl(286, 100%, 51%)"></use><use xlink:href="#SvgjsSymbol1016" x="306.25" y="218.75" fill="#fd59ff"></use><use xlink:href="#SvgjsSymbol1017" x="306.25" y="218.75" fill="#8e00cb"></use></g><g><use xlink:href="#SvgjsSymbol1015" x="218.75" y="350" fill="hsl(286, 100%, 51%)"></use><use xlink:href="#SvgjsSymbol1016" x="218.75" y="350" fill="#fd59ff"></use><use xlink:href="#SvgjsSymbol1017" x="218.75" y="350" fill="#8e00cb"></use></g><g><use xlink:href="#SvgjsSymbol1015" x="131.25" y="481.25" fill="hsl(286, 100%, 51%)"></use><use xlink:href="#SvgjsSymbol1016" x="131.25" y="481.25" fill="#fd59ff"></use><use xlink:href="#SvgjsSymbol1017" x="131.25" y="481.25" fill="#8e00cb"></use></g><g><use xlink:href="#SvgjsSymbol1015" x="393.75" y="350" fill="hsl(286, 100%, 51%)"></use><use xlink:href="#SvgjsSymbol1016" x="393.75" y="350" fill="#fd59ff"></use><use xlink:href="#SvgjsSymbol1017" x="393.75" y="350" fill="#8e00cb"></use></g><g><use xlink:href="#SvgjsSymbol1015" x="481.25" y="481.25" fill="hsl(286, 100%, 51%)"></use><use xlink:href="#SvgjsSymbol1016" x="481.25" y="481.25" fill="#fd59ff"></use><use xlink:href="#SvgjsSymbol1017" x="481.25" y="481.25" fill="#8e00cb"></use></g><g><use xlink:href="#SvgjsSymbol1015" x="306.25" y="481.25" fill="hsl(286, 100%, 51%)"></use><use xlink:href="#SvgjsSymbol1016" x="306.25" y="481.25" fill="#fd59ff"></use><use xlink:href="#SvgjsSymbol1017" x="306.25" y="481.25" fill="#8e00cb"></use></g></g><symbol id="SvgjsSymbol1000"><polygon points="0,12.5 25,0 50,12.5 25,25"></polygon></symbol><symbol id="SvgjsSymbol1001"><polygon points="0,12.5 25,25 25,50 0,37.5"></polygon></symbol><symbol id="SvgjsSymbol1002"><polygon points="25,25 50,12.5 50,37.5 25,50"></polygon></symbol><g></g><symbol id="SvgjsSymbol1003"><polygon points="0,18.75 37.5,0 75,18.75 37.5,37.5"></polygon></symbol><symbol id="SvgjsSymbol1004"><polygon points="0,18.75 37.5,37.5 37.5,75 0,56.25"></polygon></symbol><symbol id="SvgjsSymbol1005"><polygon points="37.5,37.5 75,18.75 75,56.25 37.5,75"></polygon></symbol><symbol id="SvgjsSymbol1006"><polygon points="0,25 50,0 100,25 50,50"></polygon></symbol><symbol id="SvgjsSymbol1007"><polygon points="0,25 50,50 50,100 0,75"></polygon></symbol><symbol id="SvgjsSymbol1008"><polygon points="50,50 100,25 100,75 50,100"></polygon></symbol><symbol id="SvgjsSymbol1009"><polygon points="0,31.25 62.5,0 125,31.25 62.5,62.5"></polygon></symbol><symbol id="SvgjsSymbol1010"><polygon points="0,31.25 62.5,62.5 62.5,125 0,93.75"></polygon></symbol><symbol id="SvgjsSymbol1011"><polygon points="62.5,62.5 125,31.25 125,93.75 62.5,125"></polygon></symbol><symbol id="SvgjsSymbol1012"><polygon points="0,37.5 75,0 150,37.5 75,75"></polygon></symbol><symbol id="SvgjsSymbol1013"><polygon points="0,37.5 75,75 75,150 0,112.5"></polygon></symbol><symbol id="SvgjsSymbol1014"><polygon points="75,75 150,37.5 150,112.5 75,150"></polygon></symbol><symbol id="SvgjsSymbol1015"><polygon points="0,43.75 87.5,0 175,43.75 87.5,87.5"></polygon></symbol><symbol id="SvgjsSymbol1016"><polygon points="0,43.75 87.5,87.5 87.5,175 0,131.25"></polygon></symbol><symbol id="SvgjsSymbol1017"><polygon points="87.5,87.5 175,43.75 175,131.25 87.5,175"></polygon></symbol></svg>